<mxfile host="app.diagrams.net" agent="Mozilla/5.0 (Windows NT 10.0; Win64; x64) AppleWebKit/537.36 (KHTML, like Gecko) Chrome/131.0.0.0 Safari/537.36 Edg/131.0.0.0" version="26.0.4">
  <diagram name="Pagina-1" id="fpsUQImvApCoK6nRtsk7">
    <mxGraphModel grid="1" page="1" gridSize="10" guides="1" tooltips="1" connect="1" arrows="1" fold="1" pageScale="1" pageWidth="827" pageHeight="1169" math="0" shadow="0">
      <root>
        <mxCell id="0" />
        <mxCell id="1" parent="0" />
        <mxCell id="kLt0lyJyq-NCOT6nJGmX-1" value="" style="rounded=0;whiteSpace=wrap;html=1;" vertex="1" parent="1">
          <mxGeometry x="505.5" y="-24" width="181" height="436" as="geometry" />
        </mxCell>
        <mxCell id="kLt0lyJyq-NCOT6nJGmX-2" value="" style="rounded=0;whiteSpace=wrap;html=1;" vertex="1" parent="1">
          <mxGeometry x="323" y="-24" width="182" height="436" as="geometry" />
        </mxCell>
        <mxCell id="kLt0lyJyq-NCOT6nJGmX-3" value="" style="rounded=0;whiteSpace=wrap;html=1;" vertex="1" parent="1">
          <mxGeometry x="141" y="-26.5" width="182" height="438.5" as="geometry" />
        </mxCell>
        <mxCell id="kLt0lyJyq-NCOT6nJGmX-4" value="rifugiato" style="rounded=0;whiteSpace=wrap;html=1;" vertex="1" parent="1">
          <mxGeometry x="141" y="-50" width="182" height="26" as="geometry" />
        </mxCell>
        <mxCell id="kLt0lyJyq-NCOT6nJGmX-5" style="edgeStyle=none;curved=1;rounded=0;orthogonalLoop=1;jettySize=auto;html=1;entryX=0;entryY=0.5;entryDx=0;entryDy=0;fontSize=12;startSize=8;endSize=8;" edge="1" parent="1" source="kLt0lyJyq-NCOT6nJGmX-6" target="kLt0lyJyq-NCOT6nJGmX-10">
          <mxGeometry relative="1" as="geometry" />
        </mxCell>
        <mxCell id="kLt0lyJyq-NCOT6nJGmX-6" value="Accede alla piattaforma" style="rounded=1;whiteSpace=wrap;html=1;absoluteArcSize=1;arcSize=14;strokeWidth=2;" vertex="1" parent="1">
          <mxGeometry x="182" y="71" width="100" height="38" as="geometry" />
        </mxCell>
        <mxCell id="kLt0lyJyq-NCOT6nJGmX-7" value="" style="ellipse;html=1;shape=startState;fillColor=#000000;strokeColor=#ff0000;" vertex="1" parent="1">
          <mxGeometry x="217" y="-2" width="30" height="30" as="geometry" />
        </mxCell>
        <mxCell id="kLt0lyJyq-NCOT6nJGmX-8" value="" style="edgeStyle=orthogonalEdgeStyle;html=1;verticalAlign=bottom;endArrow=open;endSize=8;strokeColor=#ff0000;rounded=0;fontSize=12;curved=1;" edge="1" parent="1" source="kLt0lyJyq-NCOT6nJGmX-7">
          <mxGeometry relative="1" as="geometry">
            <mxPoint x="232" y="71" as="targetPoint" />
          </mxGeometry>
        </mxCell>
        <mxCell id="kLt0lyJyq-NCOT6nJGmX-9" value="piattaforma" style="rounded=0;whiteSpace=wrap;html=1;" vertex="1" parent="1">
          <mxGeometry x="323" y="-50" width="182" height="26" as="geometry" />
        </mxCell>
        <mxCell id="kLt0lyJyq-NCOT6nJGmX-10" value="visualizza annunci alloggio" style="rounded=1;whiteSpace=wrap;html=1;absoluteArcSize=1;arcSize=14;strokeWidth=2;" vertex="1" parent="1">
          <mxGeometry x="356.5" y="68.5" width="115" height="43" as="geometry" />
        </mxCell>
        <mxCell id="kLt0lyJyq-NCOT6nJGmX-11" style="edgeStyle=none;curved=1;rounded=0;orthogonalLoop=1;jettySize=auto;html=1;fontSize=12;startSize=8;endSize=8;" edge="1" parent="1" source="kLt0lyJyq-NCOT6nJGmX-12" target="kLt0lyJyq-NCOT6nJGmX-15">
          <mxGeometry relative="1" as="geometry" />
        </mxCell>
        <mxCell id="kLt0lyJyq-NCOT6nJGmX-12" value="manifesta interesse per un alloggio" style="rounded=1;whiteSpace=wrap;html=1;absoluteArcSize=1;arcSize=14;strokeWidth=2;" vertex="1" parent="1">
          <mxGeometry x="160.75" y="164" width="142.5" height="65" as="geometry" />
        </mxCell>
        <mxCell id="kLt0lyJyq-NCOT6nJGmX-13" value="sistema" style="rounded=0;whiteSpace=wrap;html=1;" vertex="1" parent="1">
          <mxGeometry x="505" y="-50" width="182" height="26" as="geometry" />
        </mxCell>
        <mxCell id="kLt0lyJyq-NCOT6nJGmX-14" style="edgeStyle=none;curved=1;rounded=0;orthogonalLoop=1;jettySize=auto;html=1;entryX=0.5;entryY=0;entryDx=0;entryDy=0;fontSize=12;startSize=8;endSize=8;" edge="1" parent="1" source="kLt0lyJyq-NCOT6nJGmX-15" target="kLt0lyJyq-NCOT6nJGmX-19">
          <mxGeometry relative="1" as="geometry" />
        </mxCell>
        <mxCell id="kLt0lyJyq-NCOT6nJGmX-15" value="aggiunge il rifugiato alla lista degli interessati all&#39;alloggio" style="rounded=1;whiteSpace=wrap;html=1;absoluteArcSize=1;arcSize=14;strokeWidth=2;" vertex="1" parent="1">
          <mxGeometry x="524.75" y="172" width="142.5" height="49" as="geometry" />
        </mxCell>
        <mxCell id="kLt0lyJyq-NCOT6nJGmX-16" value="" style="edgeStyle=elbowEdgeStyle;elbow=vertical;endArrow=classic;html=1;curved=0;rounded=0;endSize=8;startSize=8;fontSize=12;exitX=0.5;exitY=1;exitDx=0;exitDy=0;entryX=0.5;entryY=0;entryDx=0;entryDy=0;" edge="1" parent="1" source="kLt0lyJyq-NCOT6nJGmX-10" target="kLt0lyJyq-NCOT6nJGmX-12">
          <mxGeometry width="50" height="50" relative="1" as="geometry">
            <mxPoint x="387" y="239" as="sourcePoint" />
            <mxPoint x="437" y="189" as="targetPoint" />
            <Array as="points">
              <mxPoint x="314" y="133" />
            </Array>
          </mxGeometry>
        </mxCell>
        <mxCell id="kLt0lyJyq-NCOT6nJGmX-17" style="edgeStyle=none;curved=1;rounded=0;orthogonalLoop=1;jettySize=auto;html=1;exitX=1;exitY=0;exitDx=0;exitDy=0;fontSize=12;startSize=8;endSize=8;" edge="1" parent="1" source="kLt0lyJyq-NCOT6nJGmX-7" target="kLt0lyJyq-NCOT6nJGmX-7">
          <mxGeometry relative="1" as="geometry" />
        </mxCell>
        <mxCell id="kLt0lyJyq-NCOT6nJGmX-18" style="edgeStyle=none;curved=1;rounded=0;orthogonalLoop=1;jettySize=auto;html=1;entryX=0.5;entryY=0;entryDx=0;entryDy=0;fontSize=12;startSize=8;endSize=8;" edge="1" parent="1" source="kLt0lyJyq-NCOT6nJGmX-19" target="kLt0lyJyq-NCOT6nJGmX-20">
          <mxGeometry relative="1" as="geometry" />
        </mxCell>
        <mxCell id="kLt0lyJyq-NCOT6nJGmX-19" value="notifica via email il volontario possessore dell&#39;annuncio relativo all&#39;alloggio" style="rounded=1;whiteSpace=wrap;html=1;absoluteArcSize=1;arcSize=14;strokeWidth=2;" vertex="1" parent="1">
          <mxGeometry x="523.75" y="254" width="144.5" height="65" as="geometry" />
        </mxCell>
        <mxCell id="kLt0lyJyq-NCOT6nJGmX-20" value="" style="ellipse;html=1;shape=endState;fillColor=#000000;strokeColor=#ff0000;" vertex="1" parent="1">
          <mxGeometry x="581" y="355" width="30" height="30" as="geometry" />
        </mxCell>
      </root>
    </mxGraphModel>
  </diagram>
</mxfile>
